<?xml version="1.0" encoding="utf-8"?>
<!-- Generator: Adobe Illustrator 26.0.1, SVG Export Plug-In . SVG Version: 6.00 Build 0)  -->
<svg version="1.1" id="Ebene_1" xmlns="http://www.w3.org/2000/svg" xmlns:xlink="http://www.w3.org/1999/xlink" x="0px" y="0px"
	 viewBox="0 0 1180 1180" style="enable-background:new 0 0 1180 1180;" xml:space="preserve">
<style type="text/css">
	.st0{fill:#FFFFFF;}
</style>
<g>
	<path class="st0" d="M591.2,1168.5h-1.5h-1c-77.8,0-153.6-15.6-225.1-46.2c-69.3-29.7-131.4-72.1-184.8-126.1
		c-53.2-53.9-94.9-116.5-123.6-185.9c-29.9-72.3-44.7-149-43.6-227.9c0.9-76.2,16.7-150.4,47.1-220.4c29.4-68,71-129.1,123.7-181.7
		c53-52.9,114.6-94.3,183.1-123.4c71.3-30.2,147-45.5,225.1-45.5h0.3c77.9,0,153.6,15.4,224.8,45.6
		c68.9,29.3,130.7,71.1,183.9,124.3c53.3,53.3,95.1,115.4,124.2,184.4c30.2,71.5,45.5,147.3,45.3,225.4c-0.1,78-15.7,153.7-46,225
		c-29.3,68.7-71.2,130.5-124.5,183.6c-53.2,53-114.9,94.5-183.7,123.6C743.8,1153.2,668.5,1168.5,591.2,1168.5z"/>
</g>
<g>
	<ellipse class="st0" cx="590.6" cy="589.4" rx="582.5" ry="582.5"/>
</g>
<g>
	<path d="M1133.2,360.3c-29.8-70.2-72.4-133.4-126.5-187.5C952.6,118.5,889.5,76,819.4,46.3C746.8,15.6,669.7,0,590.3,0h-0.4
		c-79.6,0-157,15.8-229.8,46.7c-70.3,29.9-133.5,72.6-187.8,127C118.1,228,75.6,291.1,46,361.2C15.4,433.8-0.1,510.8,0,589.9
		c0.2,79.7,15.9,156.9,46.8,229.6c29.8,70.2,72.4,133.3,126.6,187.4c54.2,54.1,117.3,96.7,187.5,126.4
		c72.7,30.9,149.9,46.5,229.4,46.6c79.6-0.2,156.9-16,229.5-47c70.3-29.9,133.4-72.6,187.6-126.8c54.2-54.2,96.7-117.4,126.4-187.5
		c30.8-72.6,46.2-149.7,46.1-229C1179.8,510.2,1164.1,433,1133.2,360.3z M591.1,1165.8h-1.5l-1,0.1c-153.9-0.1-298.7-61-408-171.6
		c-109.3-110.6-168.4-257-166.5-412C18,269,276.5,13.9,590.4,13.8h0.3c153.4,0,297.9,60,406.7,169.2
		c109.1,109.3,169,254.2,168.7,407.9C1165.7,907.9,907.7,1165.8,591.1,1165.8z"/>
	<path d="M743.8,656c-0.1-0.4-0.1-0.8-0.2-1.4l-0.1-0.9h-27.2c-12.4,0-27,0-41.5,0.2c-2.2,0-4.7,2.9-5.5,5
		c-19.1,46.4-38.3,93.7-57,139.4l-15.1,37c-1.6,3.7-3.1,7.4-4.8,11.3c-0.5,1.1-1,2.4-1.6,3.6c-0.1-0.2-0.1-0.3-0.2-0.4
		c-0.6-1.5-1.1-2.7-1.7-3.9l-14-34.5c-20.2-49.6-41-100.8-61.3-151.1c-2.1-5.1-4.8-6.6-10.5-6.5c-9.8,0.3-19.2,0.3-27.2,0.3
		c-3.6,0-7.2,0-10.8,0c-3.6,0-7.2,0-10.8,0h-17.7v9.1l0.8,0.1c2.5,0.4,5,0.8,7.4,1.1c5.5,0.8,10.6,1.6,15.7,2.9
		c7.3,2,11.1,6.8,11.1,13.9v27.8c0,53.7-0.1,109.2-0.2,163.8c0,5.2-0.9,10.4-2.2,16.6c-1.2,6.2-5,10.3-10.9,11.6
		c-4.2,0.9-8.2,1.8-12.6,2.6c-1.9,0.3-3.8,0.7-5.8,1.1l-0.8,0.2v8.8H518v-9.5l-0.9-0.1c-1.4-0.1-2.6-0.3-3.8-0.4
		c-2.7-0.3-5.2-0.6-7.8-0.9c-11.8-1.7-17.2-6.6-19.1-18c-0.7-4.7-1.1-9.2-1.1-13.7c-0.1-46.4-0.1-93.7-0.1-139.4v-37.4
		c0.1,0.1,0.1,0.2,0.2,0.3c0.6,1.4,1.4,2.7,1.9,4.1c11,26.9,21.9,53.7,32.9,80.6c10.3,25,20.5,50.2,30.8,75.2
		c6.3,15.6,13.9,34.1,21.6,52.6c0.7,1.7,2.1,3.2,3.5,3.9c1.2,0.6,3.5-0.4,4.6-1.5c0.8-0.9,1.2-2,1.7-3.1c0.1-0.3,0.2-0.6,0.3-0.9
		l31.2-77c17.3-42.9,34.8-85.9,52.2-128.8c0.4-1.2,1-2.4,1.6-3.5c0-0.1,0.1-0.1,0.1-0.2v43.4c0,36.5,0,74.1,0,111.2v2.8
		c0,8.8,0,17.9-0.7,26.7c-1.4,16.1-6.6,19.8-18.2,22.1c-3.4,0.6-7,1.1-10.4,1.6c-1.6,0.2-3.1,0.4-4.7,0.6l-0.9,0.1v9.1h106.5h0.3
		v-9.1l-0.9-0.1c-1.4-0.1-2.6-0.3-3.8-0.4c-2.6-0.3-5.2-0.6-7.7-0.9c-11.6-1.6-16.4-5.9-18.7-17.1c-0.9-4.7-1.5-10.1-1.5-16.8
		c-0.1-43.3-0.1-83.1,0-121.5c0-3.7,0-7.5,0-11.2c0-14.5-0.1-29.6,0.9-44.3c1.4-19.8,10.4-25.5,23.5-27.7c2.5-0.4,5.1-0.5,7.9-0.5
		c1.4,0,2.6,0,3.9-0.1h1v-1c0-0.5,0-0.9,0-1.4c0-0.9,0.1-1.8,0-2.6C744.1,657.9,743.9,657,743.8,656z"/>
	<path d="M517.3,508.7c3.5-31.7-5.8-56-28.6-74.2c-15.2-12.2-32.7-20.8-49.7-29.1l-2.8-1.4c-15.6-7.7-27-15.7-36.1-25.1
		c-8.9-9.3-10.4-20.3-10-27.6c0.6-11.2,5.6-22.1,13.1-28.6c7.8-6.8,18.5-10.4,30.2-10.4c14.6,0,28.9,5.8,38,15.7
		c11.5,12.4,17.6,27.8,21.9,41.3c0.6,1.9,1.8,4.5,4.6,4.5c0.9,0,2-0.2,3.2-0.8l0.6-0.3v-67.8l-0.7-0.2c-0.9-0.3-1.9-0.5-2.7-0.5
		c-3.8,0-4.9,3.9-5.3,5.2c-0.8,2.9-1.9,5.7-3,8.7c-0.3,1-0.7,2-1,3l-1.5-0.9c-1.7-1-3.1-1.9-4.6-2.8c-17.9-10.8-33.9-15.8-50.4-15.8
		c-3.2,0-6.5,0.2-9.8,0.6c-19.7,2.5-35,10.7-46.8,25.2c-11.1,13.7-16.1,30.6-15.2,51.6c0.7,17.1,6.5,31,17.9,42
		c11.7,11.4,26,18.7,39.7,25.7l2.6,1.4c12.9,6.5,26.2,13.3,39,20.6c10.9,6.1,18.3,16.1,21.6,28.7c3.8,14.8,1.6,32.2-5.8,44.4
		c-11,18.3-29.4,22.1-42.9,22.1c-4.4,0-8.8-0.4-13.4-1.2c-19.3-3.3-34-15.2-43.6-34.9c-3.8-7.9-6.4-16.4-9-24.7
		c-1.2-3.7-2.4-7.7-3.7-11.5c-0.1-0.4-0.4-0.8-0.6-1.1c-0.1-0.2-0.2-0.3-0.3-0.5l-0.3-0.5l-6,0.7V565h7l3.5-15.2
		c0.3,0.2,0.5,0.3,0.6,0.4c18.9,16.8,40.7,25.3,64.7,25.3c6.5,0,13.3-0.6,20.1-2.1C486.2,567.4,513.7,540.2,517.3,508.7z"/>
	<path d="M747,317.8l0.9,0.1c1.7,0.2,3.4,0.3,5.1,0.4c3.6,0.3,7.2,0.5,10.6,1c6.3,0.9,10.5,4.8,10.9,10.3c0.3,3.8,0.5,8.9-0.6,13.5
		l-1.1,4.6c-2.9,11.9-6,24.3-10.3,36c-11.8,32.7-24.2,65.8-36.3,97.8c-4.5,11.9-8.9,23.8-13.4,35.7c-0.6,1.6-1.2,3.1-2,5
		c-0.1,0.3-0.2,0.6-0.3,0.9c-0.1-0.3-0.1-0.4-0.2-0.6c-4.3-12.5-8.5-25-12.8-37.5c-11.1-32.8-22.8-66.8-33.9-100.2
		c-5.4-16.2-10.4-33.1-14.9-50.4c-1-3.8-0.6-7.2,1.1-9.8c2-2.9,5.4-4.8,10-5.4c3.3-0.5,6.6-0.7,10.2-1c1.6-0.1,3.1-0.3,4.8-0.4
		l0.9-0.1v-8.9H573.5v9.7l0.9,0.1c1,0.1,2.1,0.1,3.1,0.2c2.3,0.1,4.4,0.3,6.4,0.4c9,0.4,15.8,4.6,20.2,12.4c1.6,2.8,2.9,5.8,4.4,9.8
		c25.2,69.3,50.6,138.7,75.8,208l7.6,20.8c0.8,2.3,1.8,4.9,5.7,4.9l0.4,0.1c3.6-0.1,5.5-1.5,6.9-5l4.2-11
		c18.4-48.6,37.4-98.9,56.4-148.2c10.2-26.6,19.7-50.2,29.1-72.2c6.4-15.3,15.5-21.7,28.7-20.3l1.1,0.1v-9.6H747V317.8z"/>
	<path d="M872,261.2c-1-1.2-2.1-2.6-3.3-3.8c-7.5-7.6-7.5-7.6-0.9-14.6c11.3-12.2,23.2-24.3,34.6-36c3.8-3.9,7.6-7.8,11.4-11.7
		c0.5-0.5,1.2-0.9,2.3-1.7c-8.4,29.3-18.8,58-31.5,87.5l-1,2.5l84.2-38.5c-0.3,0.3-0.5,0.6-0.7,0.9c-0.9,1.2-1.8,2.4-2.8,3.4
		c-4.6,4.9-9.2,9.9-13.9,14.8c-9.7,10.2-19.5,20.6-29.1,31.1c-1.9,2.1-3.5,3-5.4,3c-1.5,0-3.1-0.6-5.2-2c-0.3-0.2-0.7-0.5-1-0.7
		c-1.1-0.7-2.3-1.6-3.5-2.1c-0.5-0.3-1-0.3-1.5-0.3c-0.3,0-0.6,0-1,0c-0.5,0.1-1.1,0.1-1.8,0.1h-2.6l36.1,34l2.7-2.4l-2.4-3.5
		c-1.4-2-2.7-3.8-3.9-5.8l-0.1-0.1c-1.9-2.9-3-4.6-2.9-5.7s1.4-2.6,3.7-5.2c9.5-10.3,19-20.8,28.4-31c6.1-6.6,12.3-13.3,18.3-19.9
		c3.6-3.9,5.4-5.8,7.2-5.8c1.7,0,3.9,1.7,7.9,4.7c1.4,1,2.8,2.1,4.5,2.8c0.7,0.3,1.7,0.2,2.8,0c0.5,0,1-0.1,1.7-0.2l2.3-0.2
		l-1.7-1.6c-2-1.9-3.9-3.7-5.8-5.5c-4.5-4.2-8.6-8.1-12.6-12.2c-1.6-1.7-3.1-2.4-4.8-2.4c-1.1,0-2.4,0.3-4.1,1.1
		c-13.4,6.6-27.6,13.6-41.9,20.2c-6.3,2.9-12.9,5.6-19.8,8.5c-2.6,1.1-5.2,2.2-7.9,3.3c0.1-0.3,0.2-0.6,0.3-0.9
		c0.4-1.6,0.8-2.8,1.2-4.1c1.9-5.7,3.8-11.3,5.7-17c5.8-17.2,11.8-35,17.7-52.5c0.6-2,0.8-5.4-0.7-7.1c-5.1-5.3-10.6-10.4-15.9-15.4
		l-2.1-1.9c-0.7-0.6-1.6-0.7-2.4-0.8c-0.3,0-0.6,0-0.8-0.1l-1.4-0.3l0.1,1.4c0,0.3,0,0.6,0,0.9c0,0.8,0,1.9,0.5,2.6
		c2.1,2.8,4.5,6,7.3,8.9c2,2.2,2,3.3-0.2,5.4c-9.9,9.3-19.7,19-29.4,28.3c-8.3,8.1-17,16.4-25.6,24.6c-2.6,2.6-4.1,3.9-5.3,3.9
		c-1.1,0-2.7-1-5.4-3l-0.4-0.2c-1.7-1.1-3.4-1.9-5.2-2.7c-0.7-0.3-1.6-0.6-2.3-1l-0.9-0.5l-1.4,3l30.9,28.9l3-2.6l-0.6-0.8
		C872.9,262.3,872.5,261.8,872,261.2z"/>
	<path d="M1109.9,699.1l-0.1-0.6l-2.9-1.4l-8.9,16.7l-18.4-7.1c-19.4-7.5-38.5-14.9-57.8-22.2c-3.7-1.5-4.8-3.6-3.7-7.7
		c0.6-2.2,0.6-4.6,0.7-6.8c0-0.9,0-2,0.1-2.9l0.1-1l-3.3-0.2l-13.3,40.5l4.1,1.4l0.4-0.9c0.5-1,0.9-2.1,1.4-3.1
		c0.9-2.3,2-4.7,2.8-7.1c1.7-4.6,4.4-5.9,8.8-4.4c21.5,7.3,42.9,14.5,64.4,21.9c0.7,0.3,1.6,0.6,2.3,0.9
		c-27.3,5.3-56.4,8.2-91.2,9.3l-2.7,0.1l70.3,59.7c-0.1,0-0.3,0-0.4,0c-0.7,0-1.5,0-2.1-0.2c-7.5-2.5-15.1-5-22.5-7.5
		c-13.5-4.5-27.4-9-41.1-13.5c-4.1-1.4-4.6-3.8-4.3-7.7c0.1-2,0.3-3.8,0.4-5.8l0.2-3.4l-3.6-0.6l-14.6,43.9l3.3,1.6l0.5-0.8
		c0.5-1,1.1-2,1.8-3c1.4-2.2,2.7-4.6,3.9-7c1.4-2.6,2.9-3.7,5.1-3.7c1,0,2.1,0.2,3.4,0.6c14.3,4.7,29,9.3,43.1,13.8
		c8.3,2.6,16.5,5.3,24.7,7.9c8.9,2.8,8.8,3,6.9,12.1c-0.4,1.9-0.5,3.6-0.7,5.8c-0.1,1-0.2,2.3-0.3,3.6l-0.2,2.5l2-1.9
		c0.7-0.6,1.2-0.9,1.7-1.2c0.6-0.5,1-0.8,1.2-1.4c0.4-1.5,0.9-2.9,1.5-4.4c2.2-6.3,4.5-13,6.3-19.6c0.5-1.9-0.8-4.8-2.4-6
		c-5.6-4.7-11.4-9.5-17-14c-6.5-5.3-13.2-10.8-19.7-16.3c-5.4-4.5-10.5-9.2-15.9-14.2c-2-2-4.1-3.8-6.2-5.8c0.1,0,0.1,0,0.1,0
		c0.6-0.2,0.9-0.3,1.2-0.3c6.2-0.7,12.6-1.4,18.8-2.1c19.1-2.1,39-4.3,58.4-6.5c2.1-0.2,5.1-2.1,5.9-4.3c2.4-6.2,4.5-12.7,6.5-18.9
		c0.5-1.2,0.9-2.6,1.4-3.9c0.2-0.7,0-1.6-0.1-2.2C1110,699.5,1109.9,699.3,1109.9,699.1z"/>
	<path d="M316.6,210.3l4.2,2.1c10.6,5.2,21.6,10.6,32.5,15.8c0.6,0.3,2.4,1,3.7,1c0.6,0,1-0.2,1.5-0.4c5.5-3.6,11.1-7.6,16.4-11.3
		c1.6-1.1,3.2-2.3,4.9-3.4l0.7-0.5l-1.6-2.9l-0.8,0.2c-0.5,0.2-1,0.3-1.6,0.5c-1.1,0.4-2.2,0.7-3.3,0.9c-1.4,0.2-2.7,0.6-3.9,0.9
		c-2,0.5-4.2,1-5.9,1c-0.8,0-1.6-0.1-2.2-0.3c-11-4.1-21.6-8.6-32.8-13.5c-3.6-1.6-7.4-3.2-11.1-4.8c0.2-0.6,0.5-1,0.7-1.6
		c0.7-1.5,1.2-2.6,1.6-3.8c0.3-1.5,0.7-2.9,1.1-4.4c1.1-3.9,2.3-8.1,1.7-11.9c-2-11.7-11.7-20.3-23.2-20.3c-4.3,0-8.3,1.1-12.1,3.3
		c-10.6,6.1-20.7,13.3-30.4,20.3c-3.7,2.6-7.5,5.3-11.2,7.9c-1,0.7-1.6,1.8-2.1,2.8c-0.2,0.4-0.4,0.7-0.6,1.1l-0.4,0.7l2.1,2.2
		l0.6-0.3c0.6-0.3,1.2-0.5,1.9-0.8c1.4-0.6,2.7-1.2,4.1-1.9c3-1.5,5.1-2.4,6.5-2.4c1.7,0,3,1.4,5.7,5.3c6.4,9.2,13,18.8,19.3,27.9
		c7.4,10.7,15,21.7,22.5,32.5c2.5,3.4,2.3,5.3-0.7,7.7c-1.8,1.4-3.3,3-4.9,4.7c-0.7,0.6-1.4,1.4-2.1,2.1l-0.7,0.7l2.6,2.8l37.4-26.1
		l-1.8-3.1l-0.8,0.3c-0.9,0.3-2,0.6-2.9,0.9c-2.2,0.6-4.5,1.4-6.6,2.3c-2.8,1.2-5,0.6-6.9-2c-5.1-7.3-10.3-14.6-15.3-21.8
		c-1.8-2.6-3.6-5.2-5.4-7.8c4.9-4.4,7.4-6.2,10.2-6.2C309.5,206.8,312.4,208.2,316.6,210.3z M304.4,198.1c-2.5,2.4-5.1,4.6-7.9,7
		c-1,0.8-2.2,1.8-3.2,2.7l-23.2-32.2c6.1-5.8,13.1-8.9,19.7-8.9c3.9,0,7.6,1.1,11,3.2c4.7,2.9,8.2,8.7,8.7,14.5
		C310,188,309.4,193.4,304.4,198.1z"/>
	<path d="M614.5,163h0.2c0.8,0,1.6-0.5,2.2-1c0.2-0.2,0.4-0.4,0.6-0.5l0.9-0.6l-0.7-0.9c-0.2-0.3-0.3-0.5-0.5-0.8
		c-0.5-0.8-1-1.7-2-2c-3.4-0.9-7.5-2.1-11.6-2.7c-2.6-0.3-3.3-1.2-3.2-4.1c0.6-11.6,1.2-23.6,1.8-35c0.4-9,0.9-18.1,1.4-27.1
		c0-1.9,0.3-3.7,0.6-6c0.1-0.5,0.1-1,0.2-1.6c0.2,0.1,0.4,0.3,0.5,0.5c1,1.1,1.9,2.1,2.6,3l15.4,19.3c16,20.2,32.5,40.9,48.8,61.3
		c1,1.2,2.4,2.2,3.9,3.2c0.7,0.5,1.6,1.1,2.4,1.8l1.5,1l0-1.8c0.2-1.6,0.4-2.9,0.6-4.2c0.4-2.4,0.7-4.5,0.8-6.5
		c1.2-28.3,2.3-56.2,3.2-79.8c0.2-5.8,1.7-7.3,7.4-7.7c1.2-0.1,2.5-0.4,3.7-0.7c0.5-0.1,1-0.3,1.6-0.4l0.9-0.2l-0.5-3.3l-2.4-0.2
		c-1,0-2.2-0.1-3.2-0.2l-9.6-0.8c-4.2-0.4-8.3-0.8-12.5-1.1c-0.3,0-0.5-0.1-0.7-0.1c-0.9-0.1-2-0.1-2.8,0.1
		c-0.9,0.3-1.8,0.8-2.5,1.4c-0.2,0.2-0.5,0.4-0.8,0.6l-1.2,0.7l1.1,0.9c0.2,0.2,0.5,0.5,0.7,0.7c0.7,0.6,1.5,1.4,2.4,1.7
		c1.7,0.5,3.3,0.7,5,1c0.9,0.2,1.8,0.3,2.7,0.5c3.5,0.6,4.8,2.3,4.7,6c-0.4,9.3-0.6,19-0.8,28.3c-0.1,7.1-0.3,14.3-0.5,21.5
		c-0.1,4.6-0.5,9.2-0.9,14.1c-0.1,1.7-0.3,3.3-0.4,5c-0.1-0.1-0.2-0.3-0.3-0.4c-1-1.2-1.9-2.2-2.7-3.2l-15.7-19.9
		c-15.3-19.4-31-39.5-46.5-59.1c-1.5-1.8-3.8-3.8-6-3.9c-2.6-0.1-5.5-0.2-9.1-0.2c-1.9,0-3.6,0-5.5,0c-1.9,0-3.6,0-5.5,0h-0.6
		l-1.6,2.8l0.9,0.5c0.5,0.3,0.9,0.6,1.5,0.9c1.1,0.8,2.4,1.6,3.7,1.9c9.2,2,10.6,2.9,10.1,12.4c-0.6,12.9-1.5,26-2.3,38.6
		c-0.5,8.9-1.1,18.1-1.7,27.1c-0.6,10.1-0.9,10.4-10.7,11.3c-0.3,0-0.5,0-0.8,0c-0.2,0-0.3,0-0.5,0c-0.5,0-1,0-1.6,0.2
		c-0.8,0.3-1.5,0.8-2.3,1.5c-0.4,0.3-0.8,0.6-1.2,0.9l-2.3,1.7l9.9,0.9C594.9,161.1,604.8,162.2,614.5,163z"/>
	<path d="M239.3,846.5c1.1,1.4,2.5,2.6,3.7,3.8c0.5,0.5,1.1,1.1,1.7,1.7l0.7,0.7l2.3-2.2l-23.2-37.7l-3.2,1.5l0.3,0.8
		c0.4,1.1,0.7,2.4,1,3.5c0.7,2.6,1.6,5.4,2.7,8c1.2,2.9,0.7,4.6-2.3,6.3c-0.8,0.5-1.8,1-2.6,1.6c-2.4,1.5-4.8,2.8-7.2,4.4
		c-18.6,12.1-38.3,24.8-57.7,37.6c-1.1,0.7-2,1.1-2.7,1.1c-0.5,0-1.2-0.2-2.1-1.8c-0.8-1.5-1.7-3-2.5-4.5c-2.1-3.7-4.4-7.8-5.7-11.8
		c-3.1-9.1,2.1-20.5,11.7-25.9c3.7-2.2,7.7-3.2,11.4-3.2c5.7,0,11,2.6,15.3,7.5c1.9,2.1,3.1,4.6,4.6,7.2c0.6,1.1,1.2,2.4,2,3.5
		l0.3,0.5l2.9,0.1l-0.1-1.1c-0.1-0.7-0.1-1.6-0.1-2.3c0-1.8,0-3.5-0.4-5.2c-2.8-12.7-14.2-22.2-28.4-23.7c-9.1-1-18.9,3.4-25.2,11.3
		c-5.4,6.6-7.6,14.8-5.9,22.2c1.2,5.6,3.8,11.6,8.1,18.6c5.5,8.9,11.4,17.8,17.2,26.3c2.1,3,4.1,6.1,6.1,9.1c0.4,0.7,1,1.1,1.6,1.6
		c0.2,0.2,0.4,0.3,0.6,0.5l0.5,0.4l2.7-1.5l-0.3-0.8c-0.3-1-0.6-2-0.9-3c-0.7-2.2-1.5-4.5-2.1-6.6c-1-3.4-1-6.1,2.3-8.3
		c26.1-16.6,46-29.5,64.8-41.8C234.6,843,236.6,843.2,239.3,846.5z"/>
	<path d="M150.1,301.6c0.5-0.6,1.1-1.1,1.7-1.7c1.1-1.2,2.4-2.4,3.6-3.6c2.5-2.6,3.8-3.8,4.9-3.8c1.1,0,2.7,1.1,5.2,3.1
		c9.4,7.5,18.8,15.1,28.3,22.5c10.4,8.3,21.2,16.8,31.8,25.2c3,2.5,3.3,4.4,1.1,7.4c-1.5,2-2.6,4.1-3.7,6.1c-0.5,0.9-1,1.8-1.6,2.7
		l-0.5,0.8l3,2.1l0.8-0.3c0.3-0.2,0.7-0.5,1-0.8c0.8-0.6,1.7-1.4,2.3-2.2c5.9-7.5,11.9-15.1,17.9-22.6c11-13.9,22.3-28.3,33.6-42.4
		c2.7-3.4,1.8-5.7-0.8-8.3c-2.7-2.7-5.2-5.5-7.7-8.3c-1.4-1.6-2.7-3.1-4.2-4.7c-0.6-0.6-1.2-1.1-1.9-1.6c-0.3-0.2-0.6-0.4-0.8-0.6
		l-0.6-0.4l-2.6,1.6l0.3,0.8c0.4,1.1,0.8,2.2,1.2,3.2c0.9,2.3,1.9,4.7,3,7c4.1,8.2,3.3,15.6-2.3,22.5c-2.1,2.7-4.3,5.4-6.4,8.1
		c-4.7,5.8-9.6,11.8-14.2,17.9c-2.5,3.1-4.7,3.3-7.8,0.7c-3.5-2.9-7.2-5.7-10.7-8.6c-2.1-1.7-4.2-3.3-6.2-5c-2.9-2.4-5.9-4.9-9-7.4
		l-3.5-2.8l5.5-7c4.9-6.1,9.6-12.1,14.2-18c2.5-3.2,5.5-3.7,9.9-2c2.5,1,5,2,7.5,2.9c1.1,0.4,2.2,0.8,3.3,1.2l0.9,0.3l1.4-2.7
		l-30.6-24.4l-0.5,1.2c-1.9,4.1,0.6,6.2,2.4,7.8c0.5,0.4,0.9,0.7,1.2,1.1c3.2,3.4,4.3,5.7,1.7,8.9c-5.2,6.3-10.3,12.8-15.5,19.3
		l-5.9,7.5l-7.8-6.3c-6.9-5.6-13.5-11-20.2-16.5c-2-1.7-2.1-3.1-0.3-5.3c7.9-9.8,15.2-18.9,22.3-27.9c2-2.5,3.8-3.1,6.5-2.4
		c3.3,0.9,6.6,1.6,10,2.3c0.9,0.1,1.8,0.3,2.7,0.5c0.7,0.1,1.4,0.1,2.4,0.2c0.5,0,1.2,0,2.1,0.1l3.3,0.3l-21-17.2l-54.4,67.2
		l3.1,2.7L150.1,301.6z"/>
	<path d="M991.3,425.1c1.1,0,2.3-0.4,3.8-1.1c3.3-1.2,6.9-2.4,10.2-3.5c2.1-0.7,4.3-1.5,6.3-2.2c0.7-0.3,1.5-0.7,2.1-1.1
		c0.3-0.2,0.5-0.3,0.8-0.5l0.6-0.3l-0.4-2.9h-0.9c-1.1,0-2.3,0-3.4,0c-1.1,0-2.3,0-3.4,0c-1.6,0-2.9,0.1-4.2,0.1
		c-8.8,0.3-15.2-3.1-19.2-10.5c-2.7-4.9-5.3-9.9-8-14.8c-2.8-5.2-5.6-10.5-8.5-15.7c-0.8-1.4-1-2.6-0.7-3.5c0.3-1,1.4-2.1,3.1-3
		c3.3-1.9,6.8-3.6,10.2-5.5c7-3.7,14.2-7.6,21.2-11.5c0.7-0.4,1.4-0.6,1.8-0.6c0.6,0,1.1,0.3,2.1,2l2.8,5.2
		c2.9,5.3,5.8,10.7,8.8,16.1c4.7,8.4,4.4,9.9-2.6,16.6c-1.2,1.2-2.5,2.6-3.6,3.9c-0.5,0.6-1,1.2-1.6,1.9l-0.6,0.8l2.2,2.1l33.3-18.2
		l-0.9-3.6l-1,0.2c-0.8,0.2-1.8,0.3-2.6,0.5c-2,0.4-4.1,0.8-6,1.6c-1.5,0.5-2.9,0.9-4.2,0.9c-1.5,0-2.5-0.6-3.3-2.1
		c-4.3-7.5-8.3-14.9-12.6-22.8c-1.6-2.8-3-5.5-4.6-8.3l8.6-4.7c7.6-4.2,15.1-8.1,22.4-12.1c0.9-0.5,1.9-0.8,2.6-0.8
		c0.8,0,2.1,0.3,3.4,2.9c0.8,1.6,1.7,3.2,2.5,4.9c3.4,6.8,7,13.7,11.3,20c5.8,8.2,3.1,14.2-2.7,20.6c-1,1.2-2,2.5-2.8,3.7
		c-0.3,0.5-0.7,1.1-1.1,1.7l-0.6,0.8l2.2,1.8l20.3-10.6l-40.5-76.4l-3.7,1.6l0.3,0.9c0.2,0.6,0.4,1.2,0.6,1.9
		c0.4,1.5,0.8,2.9,1.5,4.3c3.2,7.4,3.2,7.4-3.7,11.1c-18.6,10.1-40.3,21.8-61.9,33.3c-1.4,0.8-2.6,1.5-3.6,2.1
		c-2.2,1.2-3.6,2.1-4.6,2.1c-1.1,0-2.4-1.7-4.9-5.4c-0.4-0.6-0.9-1.4-1.5-2.1c-0.8-1.1-1.9-2.1-2.8-2.9c-0.4-0.3-0.8-0.7-1.2-1.1
		l-0.9-0.9l-0.6,1.2c-0.8,1.5-1.1,2.5-0.6,3.5c4.7,8.4,9.2,16.7,13.8,25.1c9.2,16.8,18.4,33.7,27.6,50.6
		C988.4,424.2,989.8,425.1,991.3,425.1z"/>
	<path d="M359.8,116.5c0.7-0.1,1.4-0.2,2-0.3c1.5-0.3,2.9-0.5,4.4-0.9h0.2c2.8-0.9,4.8-1.5,6-1.5c1.8,0,2.4,1.2,4.6,6.6
		c7.1,17.8,14.1,35.9,21,53.5l5.9,15.2c2.4,6.1,2.4,6.1-3.8,9.2c-1.8,0.8-3.4,1.9-5.1,2.8c-0.7,0.5-1.6,0.9-2.3,1.4l-0.8,0.5
		l1.6,3.2l0.6,0.1c0.3-0.1,0.7-0.2,1.1-0.2c0.9-0.1,1.9-0.2,2.8-0.6c24.2-9.6,51.5-20.5,78.1-31.3c1.9-0.7,3.5-3.8,3.2-5.6
		c-1-5.4-2.4-10.8-3.7-16c-0.4-1.8-0.9-3.6-1.4-5.4l-0.1-0.5l-3-1.1l-0.2,1.2c-0.2,1.1-0.4,2.2-0.6,3.3c-0.5,2.4-0.9,5-1,7.5
		c-0.2,9.1-4.5,15.3-12.8,18.6c-4.3,1.8-8.5,3.4-12.8,5.1c-5.9,2.3-12.1,4.7-18,7.2c-1.2,0.5-2.4,0.8-3.3,0.8
		c-1.4,0-3.1-0.4-4.5-4.2c-4.5-11.8-8.5-22.3-12.6-32.2c-0.5-1.2-0.6-2.1-0.4-2.6c0.2-0.5,0.9-0.9,2.2-1.5
		c8.1-3.1,16.4-6.4,25.5-10.2c4.7-2,8.1-1,11,2.9c1.6,2.2,3.3,4.3,5,6.2c0.7,0.9,1.6,1.8,2.3,2.7l0.6,0.7l2.5-1.8l-14.1-35.9
		l-3.7,0.6l0.1,0.9c0.1,0.8,0.2,1.8,0.2,2.7c0.1,2.1,0.2,4.4,0.9,6.3c1.6,4.2,0.3,6.4-4.3,8.2c-3.6,1.4-7.3,2.8-10.8,4.3
		c-3.6,1.5-7.5,3-11.2,4.5c-2.1,0.7-4.3,1.5-6.5,2.2c-0.7,0.2-1.5,0.5-2.3,0.7c-1.1-2.9-2.2-5.8-3.3-8.7c-3-8-5.9-15.6-8.9-23.2
		c-0.7-1.8-0.8-3.1-0.4-4.2s1.6-1.8,3.3-2.5l1.4-0.5c9.7-3.7,19.7-7.5,29.4-11.6c4.1-1.8,6.9-1.2,10,1.9c2.4,2.4,4.8,4.6,7.2,6.8
		c1,0.9,2.1,2,3.1,2.9l0.6,0.6l2.2-1.8L438.5,82l-80.8,31l1.1,3.7L359.8,116.5z"/>
	<path d="M88.2,690.2c6.4-0.7,12.8-1.6,19.1-2.3c16.1-2,32.8-3.9,49.1-6.4c1.5-0.2,2.5-0.3,3.4-0.3c3.3,0,3.9,1.1,5.1,6.3
		c0.4,1.9,1,3.7,1.6,5.6c0.2,0.8,0.5,1.7,0.7,2.5l0.3,0.9l3.5-0.8v-0.8c0-0.5,0-1.1,0-1.7c0-1.4,0.1-2.6-0.1-3.9
		c-3.9-29-7.6-55.2-11.4-82c-0.2-1.9-2.8-4.3-4.6-4.4c-3.2-0.1-6.5-0.2-10.9-0.2c-1.9,0-3.7,0-5.6,0s-3.7,0-5.6,0h-0.5l-1.7,2.4
		l1.1,0.5c0.9,0.4,1.9,0.8,2.7,1.2c2,0.9,4.1,1.9,6.1,2.5c10.1,3,15.3,8.8,16.4,18.2c0.6,5.7,1.5,11.4,2.2,17
		c0.7,5.5,1.6,11.2,2.2,16.8c0.3,2.9-0.9,4.4-4.1,4.8c-4.8,0.6-9.7,1.4-14.4,2c-7.2,0.9-14.6,2-21.9,2.8c-0.6,0-2.5-1.7-2.6-2.5
		c-1.2-7.3-2.3-15.1-3.3-24.5c-1-10-0.8-10.4,8.5-14.4c1.6-0.7,3.1-1.6,4.7-2.4c0.7-0.4,1.4-0.8,2.1-1.1l0.9-0.5l-1.5-2.7l-37.7,5.1
		l-0.1,3.9l0.9,0.1c0.9,0.1,1.9,0.2,2.8,0.3c2.1,0.2,4.3,0.5,6.4,0.4c3.7-0.1,5.7,1.5,6.2,4.9c1.5,10.5,2.9,21.3,4.2,32.3
		c0,0.5-0.9,1.9-1.4,2.1c-10.5,1.6-21.6,2.9-33.9,4.4c-0.2,0-0.5,0-0.7,0c-1.5,0-3.1-0.4-3.5-3.8l-0.4-3.5
		c-1.1-9.5-2.4-19.2-4.1-28.8c-0.9-5.3,0.3-8.3,4.4-10.7c2.8-1.6,5.4-3.3,8-5.1c1.1-0.7,2.3-1.6,3.4-2.3l0.7-0.5l-1-2.6l-22.9,2.8
		l10.4,85.6l3.2,0.3l0.2-0.6c0.1-0.4,0.3-0.7,0.4-1.1c0.4-0.9,0.7-1.9,0.7-2.9v-0.1c0-5.5,0-8.3,1.1-9.7c1.1-1.5,4.1-1.9,9.4-2.8
		c0.2,0,0.5-0.1,0.8-0.1C87.8,690.2,88,690.2,88.2,690.2z"/>
	<path d="M1114.7,617.7c-2.7,8.7-3.6,9.5-12.6,9.6c-9.8,0.1-20.2,0.2-30.2,0.2c-8.3,0-15.7,0-22.6-0.2c-10.8-0.2-18.2-4.4-21.7-12.2
		c-5.7-12.6-5.3-24.9,1.1-36.9c2.7-5,7.3-7.9,12.6-7.9c7.3-0.1,14.9-0.1,23.3-0.1c14.1,0,28.4,0,42.2,0.1h3c3.8,0,5.4,2.1,5.5,7.1
		c0,1.7,0,3.2,0,4.9c0,0.7,0,1.5,0,2.2v2l1.7-1.1c4.3-3,4.7-34.9,3.2-43l-0.2-0.6l-3.3-0.8l-0.2,1.1c-0.1,0.6-0.3,1.1-0.4,1.8
		c-0.3,1.4-0.7,2.7-0.7,4.2c-0.2,8-0.2,8-6,8c-0.5,0-1.2,0-2,0c-8.6-0.1-17.3-0.3-26.1-0.4c-9.8-0.2-19.6-0.4-29.4-0.5
		c-18-0.2-27.5,7-32.8,25c-2.6,8.8-2.6,18.3-0.2,28.2c3.4,13.9,12.2,22,25.8,24.3c4.8,0.7,9.9,1.1,15.2,1.2
		c5.8,0.1,12.1,0.1,19.6,0.1c4.8,0,9.6,0,14.3,0c3.7,0,7.5,0,11.3,0c7.5,0,8.3,0.7,9.6,8.3c0.2,1.1,0.5,2.2,0.9,3.2
		c0.2,0.4,0.4,0.9,0.5,1.4l0.3,0.9l3.1-1v-34.5l-1.7,1.1C1115.8,614.6,1115.2,616.1,1114.7,617.7z"/>
	<path d="M1058,448.3c-2.7,4.3-4.4,9.2-5.9,13.9c-1.1,3.4-2.1,7-3,10.4c-1.5,5.6-3,11.3-5.3,16.6c-2.9,6.9-8.7,10.9-15.4,10.9
		c-5.8,0-11.4-3.1-15.2-8.6c-3.9-5.7-5.2-13.1-3.4-20.2c1.9-7.5,6.9-13.7,13.6-17.2c1.1-0.6,2.2-1.1,3.2-1.8l2.2-1.2l-1.2-3.5
		l-0.8,0.1c-1.8,0.3-3.5,0.5-5.3,0.8c-4.6,0.7-9.4,1.5-13.9,2.6c-2,0.5-4.9,2.9-5.3,5.2c-3,15-0.6,28.8,7.2,40.9
		c5.4,8.4,13.7,12.8,24.2,12.8c0.7,0,1.5,0,2.2,0.1c12.2-0.7,20.8-7,24.8-18.2c1.5-4.3,2.8-8.5,3.7-11.8c0.8-3,1.7-5.9,2.4-8.8
		c1.5-5.6,3-11.4,5-16.9c2.2-5.9,6.6-9.5,11.9-9.5c3.5,0,7.3,1.7,10.5,4.7c4.8,4.5,7.2,10.6,6.8,17c-0.4,6.5-3.8,12.6-9.4,16.4
		c-1.1,0.8-2.4,1.6-3.5,2.4l-2.4,1.7l1.4,2.9l0.8-0.2c1.4-0.3,2.7-0.6,4.1-0.9c3-0.7,6.1-1.5,9.2-2.1c3.6-0.7,5.7-2.9,6.3-6.8
		c2.4-14.2-0.8-26.4-9.7-35.9c-5.1-5.6-11.6-8.6-18.5-8.6C1070.7,435.4,1062.9,440,1058,448.3z"/>
	<path d="M283.5,888.2c-7-4.6-14.4-6-22-4.3c-9.2,2.2-16.1,6.9-20.1,13.4c-4.1,6.9-4.8,15.5-2.2,25.1c1.4,4.9,2.8,9.8,4.3,14.4
		c1.8,5.8,3.5,11.8,5.1,17.8c1.1,4.6,0.3,8.9-2.2,12.2c-2.4,3.1-6.3,4.9-10.6,4.9c-1.7,0-3.3-0.2-5-0.7c-6.4-1.9-11.4-6-14-11.5
		c-2.6-5.6-2.6-12.1,0-18.3c0.6-1.2,1.1-2.6,1.7-3.9l1-2.6l-3.6-3l-0.6,0.8c-0.9,1.1-1.8,2.2-2.7,3.2c-2.3,2.6-4.6,5.3-6.4,8.2
		c-1.4,2-2.3,5.4-1.5,7.7c5,14,14.5,22.9,28.3,26.2c2.2,0.5,4.5,0.8,6.6,0.8c12.3,0,21.7-8.3,23.7-20.8c0.8-6-0.3-12.5-1.4-16.7
		c-1.1-4.9-2.6-9.8-3.9-14.5c-1.5-5-3-10.2-4.2-15.3c-1.1-5.1,0-10.2,3.2-14.1c3.2-4.1,8.1-6.3,13.3-6.3c1.4,0,2.6,0.1,3.9,0.4
		c7.7,1.8,14,7,17.2,14.4c3.3,7.8,2.8,16.5-1.6,23.9c-0.6,1.1-1.2,2.4-1.9,3.5c-0.3,0.6-0.5,1.1-0.8,1.7l-0.4,0.7l2.7,2.1l0.6-0.5
		c1.4-1.1,2.8-2.4,4.2-3.6c3.1-2.8,6.4-5.7,9.8-8.4c4.4-3.5,3.4-7.4,2.1-10.3C301.1,903.7,293.5,894.8,283.5,888.2z"/>
	<path d="M82.8,442.9c0.4-0.4,0.7-0.8,1.1-1.2c0.8-0.9,1.7-1.9,2.4-3c2.7-4.6,6.2-6.5,11.3-6.6c32.5-0.5,65.2-1.2,93.4-2
		c1.4,0,2.6-0.6,3.7-1.1c0.5-0.2,0.9-0.4,1.5-0.6l1.2-0.4l-0.7-1c-0.2-0.4-0.5-0.8-0.7-1.2c-0.6-1-1.2-2.1-2.1-2.9
		c-12.2-11.6-24.4-23.2-36.6-34.8c-10.6-10.2-21.3-20.3-31.9-30.3c-3-2.8-3.7-5.7-2.4-9.1c0.6-1.7,0.7-3.3,0.8-5
		c0.1-0.7,0.1-1.4,0.2-2.1l0.1-0.9l-3.8-0.9l-14.9,37l3,1.6l0.5-0.8c0.4-0.9,0.9-1.8,1.5-2.6c1-1.9,2.2-3.7,3.3-5.6
		c1.9-3,3.2-4.3,4.8-4.3c1.1,0,2.6,0.7,4.6,2.2c6.2,4.7,11.9,9.5,17.1,14.1c9.4,8.4,18.7,17.1,27.7,25.5c3.5,3.2,7.1,6.5,10.6,9.8
		l-0.2,0.4h-2.2c-0.6,0-1.1,0-1.7,0l-19.9,0.3c-13.4,0.2-26.9,0.4-40.3,0.6c-1,0.1-2,0.1-3,0.1c-1.5,0.1-2.9,0.1-4.4,0.1
		c-2.1,0-3.8,0-5.4-0.2c-2.8-0.3-4.3-0.7-4.8-1.6c-0.5-0.7-0.4-2.3,0.4-5.3c0.6-2.5,1.5-5.1,2.2-7.5c0.4-1.1,0.7-2.2,1-3.3l0.3-0.9
		l-3.8-1.4l-17.7,44.3l2.9,1.8L82.8,442.9z"/>
	<path d="M63.4,564c0.3-0.9,0.7-2,1.1-2.9c0.8-2.3,1.8-4.6,2.4-7c0.9-3.6,2.6-4.7,6.3-4.2c25.7,3.9,51.1,7.8,75.6,11.3
		c4.3,0.6,5.8,2.4,5.5,6.4c-0.2,2.6-0.1,5.3-0.1,7.9c0,1.1,0,2.3,0,3.4v1l3.7,0.2l11.8-85.5l-25.9-8.2l-1.5,2.9l0.7,0.5
		c0.5,0.3,0.9,0.7,1.4,1c0.9,0.7,1.9,1.5,2.9,2.2c11,7.7,15.4,17.3,13.2,29.5c-1.4,7.6-2.3,14.4-2.9,21.1c-0.3,3-1.5,3.2-2.8,3.2
		c-0.4,0-0.9,0-1.6-0.1c-7.5-1-15.1-2.1-22.5-3.1c-16.9-2.4-34.5-4.8-51.6-7.5l-1.5-0.2c-4.1-0.6-6.2-0.9-7.1-1.8
		c-0.7-0.6-0.7-2.1-0.5-5.3c0.1-1,0.2-2.3,0.2-3.6c0-0.8,0.1-1.6,0.2-2.4c0.1-1.1,0.3-2.3,0.2-3.4c0-1-0.5-1.9-1-2.6
		c-0.2-0.3-0.4-0.5-0.5-0.8l-0.4-0.8l-2.4,0.9L59.6,564l3.4,0.9L63.4,564z"/>
	<path d="M660.6,1093.8c-0.3,0.5-0.6,0.9-0.9,1.5c-0.8,1.1-1.6,2.3-2,3.6c-1.4,4.9-4.2,7.1-9,7.2c-2.6,0.1-5.2,0.3-7.8,0.6
		c-1.5,0.1-3,0.3-4.6,0.4c-5.7,0.4-11.4,0.8-17.6,1.2l-6,0.4c0.1,0,0.1-0.1,0.1-0.1c0.5-0.7,0.8-1.2,1.1-1.7
		c2.4-2.8,4.7-5.6,7.1-8.3c4.8-5.6,9.9-11.5,14.5-17.6l0.9-1.2c5.8-7.6,11.8-15.4,16.5-23.8c5.2-9.5,4.2-19.6-2.8-28.8
		c-5-6.4-13.3-10.3-22.3-10.3c-3.8,0-7.6,0.6-11.2,2c-11.2,4.2-20.4,17.3-19.6,28.4c0.1,0.7,0.5,1.5,0.8,2c0.1,0.2,0.2,0.4,0.3,0.6
		l0.3,0.5l2.8,0.4l0.3-0.7c0.5-1,0.9-2.2,1.4-3.3c0.9-2.4,2-4.9,3-7.3c3.2-7.2,10.9-12.2,18.6-12.2c1.7,0,3.4,0.2,5,0.7
		c9.6,2.9,14.6,12.2,12.7,23.1c-1.6,8.5-5.3,16.4-11.7,25c-5.3,7.1-10.8,14.1-16.1,21c-3.9,5.1-8.1,10.4-12.1,15.6
		c-0.9,1.2-1.7,2.7-2.5,4.4c-0.4,0.8-0.9,1.7-1.5,2.7l-0.9,1.7l66.1-6l0.9-21.1l-3.4-1.4L660.6,1093.8z"/>
	<path d="M558.2,1018.6c-3.4-1.4-7-2-10.4-2c-6.5,0-12.7,2.4-18.3,7.1c-12.3,10.1-15.5,29.5-7.3,43.2c5.8,9.7,14,14,24.2,12.8
		c1.1-0.2,2.2-1,3.1-1.8c0.4-0.3,0.8-0.6,1.1-0.8l1.6-1l-1.8-0.7c-0.3-0.2-0.7-0.4-1-0.6c-0.9-0.5-2-1-3.1-1
		c-7,0.2-11.5-3.1-13.4-9.6c-3.8-13.7-2-26.2,5.8-37.1c2.3-3.2,5.6-5,9.2-5c2.2,0,4.4,0.6,6.5,1.8c5.4,2.8,8.7,7.3,10.1,13.3
		c2.4,10.5,2,21.7-1,33.3c-6.6,25.3-20.7,39.7-42.7,43.6c-0.8,0.1-1.5,0.7-2.1,1.2c-0.2,0.2-0.4,0.3-0.6,0.5l-0.6,0.5l1,2.4l0.3,0.7
		l0.5-0.1c1-0.1,2-0.1,2.9-0.2c2.1-0.1,4.3-0.3,6.3-0.7c16-3.4,29.9-13.2,39.2-27.3c9.1-14,12.7-30.7,10.1-47.2
		C576,1031.4,569.2,1022.7,558.2,1018.6z"/>
	<path d="M109,778.7c9.9-3.7,19.8-7.7,29.5-11.4c11.9-4.7,24.3-9.5,36.5-14c3.9-1.5,6.6-2.4,8.4-2.4c2.6,0,3.7,2,7.2,8.7l0.1,0.2
		c0.6,1.2,1.5,2.4,2.3,3.4c0.3,0.5,0.7,0.9,1,1.5l0.5,0.9l3-2l-0.3-0.8c-1.5-3.6-2.8-7.4-4.2-10.9c-4.2-10.7-8.3-21.8-14-32.2
		l-1.5-2.7l-0.4,3.1c-0.4,3.1,0.2,5.9,0.8,8.5c1.5,6,0.7,7.5-4.8,9.7c-11.2,4.3-22.6,8.6-33.7,12.9c-11.7,4.5-23.9,9-35.7,13.7
		c-1.4,0.5-2.4,0.7-3.4,0.7c-2.2,0-3.8-1.4-5.2-4.3c-0.9-2-2.1-3.9-3.2-5.7c-0.5-0.7-0.9-1.6-1.5-2.4l-0.5-0.8l-3.1,1.7l17.2,45.6
		l3.8-1.2l-0.2-0.9c-0.2-1-0.5-2.2-0.7-3.3c-0.5-2.5-1.1-5.1-1.9-7.6C103.9,782.3,104.8,780.3,109,778.7z"/>
	<path d="M495.1,71.9c1.1,0,2.2,0,3.3,0c1,0,2.2,0,3.3,0c1.6,0,2.9-0.1,4.2-0.1c4.5-0.2,6.4,1.6,7,6.1c1.6,12.8,3.2,25.8,4.8,38.3
		c1.1,9.2,2.4,18.9,3.5,28.4c0.8,7,1.1,10.2-0.1,12.1c-1.4,2-4.7,3-11.3,5h-0.1c-1,0.3-1.9,0.9-2.7,1.5c-0.3,0.3-0.7,0.5-1,0.7
		l-2.7,1.7l3.1,0.3c1.8,0.2,3.6,0.3,5.5,0.3c3.6,0,7.1-0.3,11.2-0.9c3.7-0.4,7.6-0.9,11.2-1.5c1.4-0.1,2.8-0.3,4.2-0.5
		c3.6-0.4,7.3-0.9,10.9-1.5l5.4-0.7l-0.4-1.2c-0.5-1.4-1.1-2.7-2.4-2.8c-1.2,0-2.5-0.1-3.7-0.1c-0.8,0-1.7-0.1-2.5-0.1
		c-7.1-0.3-8-1.1-9-8c-1.9-12.6-3.4-25.2-5-37.4c-1.7-12.9-3-24.1-4.2-34.4c-0.6-6.2-0.3-6.9,5.6-8.5c2.1-0.5,4.2-1.2,6.2-1.9
		c0.9-0.2,1.9-0.5,2.8-0.8l0.9-0.3l-0.7-3.4L494,67.8l0.1,4.1H495.1z"/>
	<path d="M488.3,1008.4v-1.1l-1.1,0.1c-0.7,0.1-1.5,0.1-2.3,0.1c-1.8,0-3.6,0.1-5.3,0.7c-7.4,3-14.9,6.3-22,9.6l-2.5,1.1
		c-0.9,0.4-1.7,1-2.4,1.7c-0.3,0.2-0.6,0.5-0.9,0.7l-0.6,0.5l1.6,3.6l21.5-6.4c-1.8,5.8-3.4,11.6-5.2,17.5
		c-5.4,18.3-10.5,35.4-15.5,53.1c-1.2,4.5-3.3,5.8-7.8,5.2c-1.2-0.2-2.8,0-4.2,0.2c-0.5,0.1-1.1,0.1-1.7,0.2l-0.9,0.1l-0.1,3.7
		l34.7,10l2-3.4l-0.7-0.5c-0.6-0.4-1.1-0.8-1.7-1.4c-1.2-1-2.6-2.2-4.2-2.8c-4.4-1.8-5.3-4.2-3.7-9.3c7.8-25.5,15.4-51.4,22.8-76.6
		c0.4-1.5,0.3-3,0.3-4.6C488.3,1009.7,488.3,1009,488.3,1008.4z"/>
	<path d="M684.1,1011.9c-7.9,1.9-11.8,2.9-13.5,5.6c-1.7,2.7-0.6,6.5,1.2,14.1l0.1,0.4c0.1,0.8,0.4,1.9,1,2.5
		c0.6,0.6,1.4,0.8,2.2,1.1c0.3,0.1,0.6,0.3,1,0.4l1.4,0.5l0.1-1.5c0.1-0.5,0.1-1,0.2-1.5c0.2-0.9,0.3-1.9,0.1-2.8
		c-0.8-3.4,0.4-5.1,4.8-6.1c4.8-1.1,9.6-2.4,14.2-3.5c4.8-1.1,9.8-2.5,14.8-3.6c2.2-0.5,4.4-0.8,6.6-1.1c0.6-0.1,1.2-0.2,1.9-0.3
		c-4.3,29.2-8.3,60.3-7.9,91.8v1.4l7.6-2.1l-0.2-0.9c-2.6-13-0.9-25.8,0.6-38c0.6-4.6,1.1-9.1,1.6-13.7c0.9-11.9,2.8-23.6,4.7-35.8
		c0.8-5.3,1.8-10.8,2.5-16.3l0.2-1.6l-15.3,3.7C703.9,1007,694,1009.5,684.1,1011.9z"/>
	<path d="M755.3,142.1c10.5,4.8,21.3,9.6,31.7,14.2c7.7,3.4,15.8,7.1,23.7,10.6c1.7,0.7,3.1,1.4,4.5,1.4c1.9,0,3.4-1,4.6-3.4
		c0.8-1.7,0.9-3.1,0.5-4.4c-0.7-1.9-2.7-2.8-4.5-3.6c-18.1-8.1-37.1-16.5-56.4-25.1c-0.7-0.3-1.6-0.5-2.6-0.8
		c-0.6-0.2-1.2-0.4-2.1-0.6l-0.7-0.2l-0.4,0.6c-0.3,0.3-0.6,0.7-1,1.2c-1.1,1.4-2.3,2.8-2,4.3C751,138.5,753.1,141.1,755.3,142.1z"
		/>
	<path d="M944.4,920.5c-2.2,2-4.2,2.9-6.4,2.9c-2.3,0-4.7-1-7.1-2.1c-0.6-0.2-1.1-0.5-1.8-0.7c-5.6-2.3-12.5-5.1-19.1-7.9
		c-6.3-2.6-12.6-5.3-19.2-8.1l-11.1-4.7l0.6,2.2c0.2,0.8,0.4,1.5,0.6,2.1c0.3,1,0.6,1.9,0.9,2.7c2.1,5.2,4.2,10.4,6.3,15.5
		c3.7,9,7.6,18.4,11.3,27.5c0.3,0.7,0.6,1.5,0.9,2.2c2,4.4,3.7,8.1-1.6,12.2l-1.2,0.9l5,2.7l17.6-19.9l-4.9,2.6
		c-3.3,1.8-5.5,2.9-6.9,2.9c-1.6,0-2.5-1.8-4.9-7c-3.6-7.8-7.1-15.9-10.4-23.7c-1-2.5-2.2-5-3.2-7.5c-0.2-0.5-0.3-1-0.4-1.7l9.2,3.9
		c8.2,3.4,16,6.8,23.9,10.1h0.1c4.3,1.8,6.8,2.9,7.2,4.1c0.4,1.2-0.9,3.5-3.1,7.5l-4.1,7.3l23.2-24.5c0.4-0.4,0.7-0.8,1.1-1.2
		l-1.6-1.4L944.4,920.5z"/>
	<path d="M1008.6,830.2c-0.7-0.4-1.8-0.5-2.5-0.5c-1.2,0-3.6,0.4-4.5,1.7c-7,10.4-13.6,20.7-21.4,33c-1.1,1.8-1.1,3.8-0.2,5.6
		c1.1,2,3.3,3.2,5.8,3.2l0.5-0.1l0.2-0.2c0.1,0,0.2-0.1,0.4-0.2c0.6-0.4,1.6-0.9,2.2-1.8l0.2-0.4c7.2-11,14.5-22.3,21.5-33.7
		c0.3-0.6,0.4-1.6,0.1-2.7C1010.7,832.7,1009.7,831,1008.6,830.2z"/>
	<path d="M945.5,856c-3.4-2.2-7.1-3.3-10.7-3.3c-8.1,0-14.6,5.5-16.6,14.1c-0.5,2.3-0.6,4.7-0.6,7.1c0,1,0,2.1-0.1,3.1l-0.1,1
		l3.4,0.2l0.1-0.9c1-8.9,4.4-14,10.1-15.7c0.9-0.3,2-0.4,3-0.4c4.5,0,9.1,2.4,12.3,6.1l-15.1,19.8l0.9,0.6c2.8,1.9,5.8,2.9,8.7,2.9
		c3.6,0,7.1-1.5,9.8-4.4c3.8-3.9,5.6-9.1,5-14.6C955,865.4,951.2,859.7,945.5,856z M944.4,885c-1.1,0-2.6-0.5-4.5-1.8l8.7-12.5
		c3.1,4.4,3,8.6-0.4,12.2C946.8,884.4,945.6,885,944.4,885z"/>
	<path d="M809.7,1048c-3.9-3.3-8.1-6.8-12.3-10c-2.5-2-3.2-3.8-2.6-7.1c0.9-5,1.7-10.1,2.3-15.1c0.2-2.1,0.5-4.2,0.8-6.2l0.1-0.7
		l-2.8-1.2l-0.5,0.7c-0.3,0.4-0.7,0.9-1,1.4c-0.8,1-1.7,2.2-2.1,3.5c-1,3.2-2,6.5-2.9,9.8c-1.2,4.1-2.5,8.3-3.8,12.4
		c-1.2,3.5,0.2,5.2,2.6,6.5c3.2,1.8,6.4,3.5,9.6,5.3c3.6,2.1,7.5,4.2,11.2,6.2c1,0.6,2.3,0.8,3.5,1c0.4,0.1,0.9,0.2,1.5,0.3l0.9,0.2
		l1-2.5l-0.5-0.4C813.1,1050.8,811.4,1049.3,809.7,1048z"/>
	<path d="M396.9,1036.6c-2.3-8.3-4.8-16.5-7.3-24.2c-0.3-0.9-0.9-1.8-1.6-2.6c-0.3-0.3-0.5-0.6-0.7-0.9l-0.4-0.7l-2.8,1.1l0.1,0.8
		c0.2,2.1,0.4,4.1,0.6,6.1c0.4,4.9,0.9,9.9,1.9,14.8c0.6,3.4,0.4,5.6-2.7,7.8c-4.2,3-8.2,6.2-12.1,9.5c-1.7,1.4-3.3,2.7-5,4.1
		l-1.2,1l1.6,0.7c1.2,0.5,2.4,0.8,3.4,0.8c0.7,0,1.5-0.2,2.1-0.6c8.5-4.6,15.6-8.5,22.1-12.5C396.3,1041,397.3,1038.3,396.9,1036.6z
		"/>
	<path d="M789.3,1055.7c-4.5-3.5-9-7.2-13.4-10.8c-1-0.9-1.9-2.4-1.9-3.3c0-1.9,0.3-3.8,0.6-5.8c0.2-1,0.4-2.2,0.5-3.2
		c0.4-3.5,0.8-7,1.2-10.5l0.6-5.3l-3.6-0.8l-0.3,0.7c-3.5,7.6-5.7,15.7-7.9,23.5c-0.6,2.3-1.2,4.5-1.9,6.8l-0.2,0.8l29.8,16l1.7-3.7
		l-0.6-0.5C792.4,1058.1,790.8,1056.9,789.3,1055.7z"/>
	<path d="M404.3,1017.9l0.1,0.9c0.3,2.1,0.5,4.3,0.7,6.3c0.5,5,1,10.3,2,15.4c0.6,3.2-0.4,4.7-2.6,6.3c-4.1,3.1-8.2,6.4-12.2,9.7
		c-1.6,1.4-3.2,2.6-4.9,3.9l-0.7,0.5l1.8,3l0.7-0.1c6.4-1.8,12.3-5.3,17.8-8.7c3.4-2.1,7.1-4.3,10.7-6l0.8-0.4l-10.5-31.6
		L404.3,1017.9z"/>
</g>
<g>
	<g>
		<path class="st0" d="M-758.7,385.1c3.2,0,3.2-5,0-5C-762,380.1-762,385.1-758.7,385.1L-758.7,385.1z"/>
	</g>
</g>
</svg>
